<?xml version="1.0" encoding="UTF-8"?><svg xmlns="http://www.w3.org/2000/svg" viewBox="0 0 1260.3 595.28"><defs><style>.cls-1{font-family:SegoePrint-Bold, 'Segoe Print';font-size:42px;font-weight:700;}.cls-1,.cls-2{fill:#f1f2f2;}.cls-3{fill:#6d2e90;}.cls-4{fill:#2e3192;}.cls-5{fill:#7f2b8f;}.cls-6{fill:#5b2f90;}.cls-7{fill:#91288d;}.cls-8{fill:#483291;}.cls-9{letter-spacing:0em;}</style></defs><g id="Background_Purple_-_Blue"><path class="cls-4" d="m254.28,218.7c0,10.93-8.86,19.79-19.79,19.79s-19.79-8.86-19.79-19.79,8.86-19.79,19.79-19.79,19.79,8.86,19.79,19.79Zm-86.56-35.81c-7,0-12.68,5.68-12.68,12.68s5.68,12.68,12.68,12.68,12.68-5.68,12.68-12.68-5.68-12.68-12.68-12.68Zm287.9-32.1c-7.14,0-12.93,5.79-12.93,12.93s5.79,12.93,12.93,12.93,12.93-5.79,12.93-12.93-5.79-12.93-12.93-12.93Zm117.75,247.35c-7.57,0-13.71,6.14-13.71,13.71s6.14,13.71,13.71,13.71,13.71-6.14,13.71-13.71-6.14-13.71-13.71-13.71Zm52.22-212.43c-7.18,0-13.01,5.82-13.01,13.01s5.82,13.01,13.01,13.01,13.01-5.82,13.01-13.01-5.82-13.01-13.01-13.01Zm129.21-53.83c-7.08,0-12.82,5.74-12.82,12.82s5.74,12.82,12.82,12.82,12.82-5.74,12.82-12.82-5.74-12.82-12.82-12.82Zm-9.43,242.7c-7.08,0-12.81,5.74-12.81,12.81s5.74,12.81,12.81,12.81,12.81-5.74,12.81-12.81-5.74-12.81-12.81-12.81Zm247.04,23.39c-7.76,0-14.05,6.29-14.05,14.05s6.29,14.05,14.05,14.05,14.05-6.29,14.05-14.05-6.29-14.05-14.05-14.05Zm128.2-.03c-7.2,0-13.04,5.84-13.04,13.04s5.84,13.04,13.04,13.04,13.04-5.84,13.04-13.04-5.84-13.04-13.04-13.04Zm36.56-160.59c-7.62,0-13.8,6.18-13.8,13.8s6.18,13.8,13.8,13.8,13.8-6.18,13.8-13.8-6.18-13.8-13.8-13.8Zm-65.32-107.22c-7.44,0-13.47,6.03-13.47,13.47s6.03,13.47,13.47,13.47,13.47-6.03,13.47-13.47-6.03-13.47-13.47-13.47Zm-183.56,19.46c-7.05,0-12.76,5.71-12.76,12.76s5.71,12.76,12.76,12.76,12.76-5.71,12.76-12.76-5.71-12.76-12.76-12.76Z"/><path class="cls-8" d="m212.75,257.63c0,17.86-14.48,32.34-32.34,32.34s-32.34-14.48-32.34-32.34,14.48-32.34,32.34-32.34,32.34,14.48,32.34,32.34Zm-25.08,129.92c-7,0-12.68,5.68-12.68,12.68s5.68,12.68,12.68,12.68,12.68-5.68,12.68-12.68-5.68-12.68-12.68-12.68Zm80.52-152.38c-11.08,0-20.06,8.98-20.06,20.06s8.98,20.06,20.06,20.06,20.06-8.98,20.06-20.06-8.98-20.06-20.06-20.06Zm92.83,114.93c-11.21,0-20.31,9.09-20.31,20.31s9.09,20.31,20.31,20.31,20.31-9.09,20.31-20.31-9.09-20.31-20.31-20.31Zm14.83-161.62c-7.14,0-12.93,5.79-12.93,12.93s5.79,12.93,12.93,12.93,12.93-5.79,12.93-12.93-5.79-12.93-12.93-12.93Zm82.59.01c-7.13,0-12.91,5.78-12.91,12.91s5.78,12.91,12.91,12.91,12.91-5.78,12.91-12.91-5.78-12.91-12.91-12.91Zm125.05,169.13c-7.06,0-12.78,5.72-12.78,12.78s5.72,12.78,12.78,12.78,12.78-5.72,12.78-12.78-5.72-12.78-12.78-12.78Zm45.12-123.63c-7.28,0-13.19,5.9-13.19,13.19s5.9,13.19,13.19,13.19,13.19-5.9,13.19-13.19-5.9-13.19-13.19-13.19Zm54.84,91.23c-7.82,0-14.15,6.34-14.15,14.15s6.34,14.15,14.15,14.15,14.15-6.34,14.15-14.15-6.34-14.15-14.15-14.15Zm231.44-133.97c-7,0-12.68,5.68-12.68,12.68s5.68,12.68,12.68,12.68,12.68-5.68,12.68-12.68-5.68-12.68-12.68-12.68Zm62.65,139.74c-11.76,0-21.3,9.54-21.3,21.3s9.54,21.3,21.3,21.3,21.3-9.54,21.3-21.3-9.54-21.3-21.3-21.3Zm177.03-200.7c-10.8,0-19.56,8.76-19.56,19.56s8.76,19.56,19.56,19.56,19.56-8.76,19.56-19.56-8.76-19.56-19.56-19.56Z"/><path class="cls-6" d="m269.13,278.85c0,11.5-9.33,20.83-20.83,20.83s-20.83-9.33-20.83-20.83,9.33-20.83,20.83-20.83,20.83,9.33,20.83,20.83Zm-113.55,70.2c-11.5,0-20.83,9.33-20.83,20.83s9.33,20.83,20.83,20.83,20.83-9.33,20.83-20.83-9.33-20.83-20.83-20.83Zm156.46-24.67c-6.95,0-12.58,5.63-12.58,12.58s5.63,12.58,12.58,12.58,12.58-5.63,12.58-12.58-5.63-12.58-12.58-12.58Zm-167.57-69.91c-11.5,0-20.83,9.33-20.83,20.83s9.33,20.83,20.83,20.83,20.83-9.33,20.83-20.83-9.33-20.83-20.83-20.83Zm190.2-12.52c-7.06,0-12.78,5.72-12.78,12.78s5.72,12.78,12.78,12.78,12.78-5.72,12.78-12.78-5.72-12.78-12.78-12.78Zm98.65,36.91c-11.5,0-20.83,9.33-20.83,20.83s9.33,20.83,20.83,20.83,20.83-9.33,20.83-20.83-9.33-20.83-20.83-20.83Zm0-103.24c-11.5,0-20.83,9.33-20.83,20.83s9.33,20.83,20.83,20.83,20.83-9.33,20.83-20.83-9.33-20.83-20.83-20.83Zm-237.85-15.27c-7,0-12.68,5.68-12.68,12.68s5.68,12.68,12.68,12.68,12.68-5.68,12.68-12.68-5.68-12.68-12.68-12.68Zm-45.96,243.88c-6.95,0-12.58,5.63-12.58,12.58s5.63,12.58,12.58,12.58,12.58-5.63,12.58-12.58-5.63-12.58-12.58-12.58Zm235.87-14.2c-7.04,0-12.74,5.71-12.74,12.74s5.71,12.74,12.74,12.74,12.74-5.71,12.74-12.74-5.71-12.74-12.74-12.74Zm175.15-55.92c-12.29,0-22.25,9.96-22.25,22.25s9.96,22.25,22.25,22.25,22.25-9.96,22.25-22.25-9.96-22.25-22.25-22.25Zm11.3-115.4c-11.5,0-20.83,9.33-20.83,20.83s9.33,20.83,20.83,20.83,20.83-9.33,20.83-20.83-9.33-20.83-20.83-20.83Zm73.78,31.82c-18.52,0-33.54,15.01-33.54,33.54s15.01,33.54,33.54,33.54,33.54-15.01,33.54-33.54-15.01-33.54-33.54-33.54Zm67.12,136.16c-7.09,0-12.85,5.75-12.85,12.85s5.75,12.85,12.85,12.85,12.85-5.75,12.85-12.85-5.75-12.85-12.85-12.85Zm-77.6-37.63c-7.1,0-12.85,5.75-12.85,12.85s5.75,12.85,12.85,12.85,12.85-5.75,12.85-12.85-5.75-12.85-12.85-12.85Zm-146.43-137.38c-11.5,0-20.83,9.33-20.83,20.83s9.33,20.83,20.83,20.83,20.83-9.33,20.83-20.83-9.33-20.83-20.83-20.83Zm218.4-50.35c-8.38,0-15.18,6.8-15.18,15.18s6.8,15.18,15.18,15.18,15.18-6.8,15.18-15.18-6.8-15.18-15.18-15.18Zm144.82,59.37c-7.34,0-13.3,5.95-13.3,13.3s5.95,13.3,13.3,13.3,13.3-5.95,13.3-13.3-5.95-13.3-13.3-13.3Zm21.07,145.16c-7.13,0-12.91,5.78-12.91,12.91s5.78,12.91,12.91,12.91,12.91-5.78,12.91-12.91-5.78-12.91-12.91-12.91Zm99.92-131.11c-17.5,0-31.69,14.19-31.69,31.69s14.19,31.69,31.69,31.69,31.69-14.19,31.69-31.69-14.19-31.69-31.69-31.69Zm78.16-69.22c-23.39,0-42.34,18.96-42.34,42.34s18.96,42.34,42.34,42.34,42.34-18.96,42.34-42.34-18.96-42.34-42.34-42.34Zm-80.22,198.4c-7.21,0-13.06,5.85-13.06,13.06s5.85,13.06,13.06,13.06,13.06-5.85,13.06-13.06-5.85-13.06-13.06-13.06Zm128.2,7.35c-11.5,0-20.83,9.33-20.83,20.83s9.33,20.83,20.83,20.83,20.83-9.33,20.83-20.83-9.33-20.83-20.83-20.83Zm73.51-170.82c-6.89,0-12.47,5.58-12.47,12.47s5.58,12.47,12.47,12.47,12.47-5.58,12.47-12.47-5.58-12.47-12.47-12.47Zm-38.81-103.41c-7,0-12.68,5.68-12.68,12.68s5.68,12.68,12.68,12.68,12.68-5.68,12.68-12.68-5.68-12.68-12.68-12.68Z"/><path class="cls-3" d="m253.92,300.97c0,19.87-16.11,35.99-35.99,35.99s-35.99-16.11-35.99-35.99,16.11-35.99,35.99-35.99,35.99,16.11,35.99,35.99Zm80.75-37.83c-14.55,0-26.35,11.8-26.35,26.35s11.8,26.35,26.35,26.35,26.35-11.8,26.35-26.35-11.8-26.35-26.35-26.35Zm144.87-19.55c-18.78,0-34.01,15.23-34.01,34.01s15.23,34.01,34.01,34.01,34.01-15.23,34.01-34.01-15.23-34.01-34.01-34.01Zm116.49,32.9c-12.2,0-22.09,9.89-22.09,22.09s9.89,22.09,22.09,22.09,22.09-9.89,22.09-22.09-9.89-22.09-22.09-22.09Zm197.39-17.26c-17.54,0-31.76,14.22-31.76,31.76s14.22,31.76,31.76,31.76,31.76-14.22,31.76-31.76-14.22-31.76-31.76-31.76Zm-368.72,105.12c-7.28,0-13.18,5.9-13.18,13.18s5.9,13.18,13.18,13.18,13.18-5.9,13.18-13.18-5.9-13.18-13.18-13.18Zm-176.39,13.87c-11.44,0-20.72,9.28-20.72,20.72s9.28,20.72,20.72,20.72,20.72-9.28,20.72-20.72-9.28-20.72-20.72-20.72Zm47.76-152.09c-7.24,0-13.1,5.87-13.1,13.1s5.87,13.1,13.1,13.1,13.1-5.87,13.1-13.1-5.87-13.1-13.1-13.1Zm231.51,146.88c-10.45,0-18.92,8.47-18.92,18.92s8.47,18.92,18.92,18.92,18.92-8.47,18.92-18.92-8.47-18.92-18.92-18.92Zm214.97-202.92c-11.5,0-20.82,9.32-20.82,20.82s9.32,20.82,20.82,20.82,20.82-9.32,20.82-20.82-9.32-20.82-20.82-20.82Zm-9.43,173.87c-11.26,0-20.39,9.13-20.39,20.39s9.13,20.39,20.39,20.39,20.39-9.13,20.39-20.39-9.13-20.39-20.39-20.39Zm204.31-26.78c-7.28,0-13.18,5.9-13.18,13.18s5.9,13.18,13.18,13.18,13.18-5.9,13.18-13.18-5.9-13.18-13.18-13.18Zm4.56-138.43c-10.73,0-19.42,8.7-19.42,19.42s8.7,19.42,19.42,19.42,19.42-8.7,19.42-19.42-8.7-19.42-19.42-19.42Zm109.08,132.43c-11.13,0-20.16,9.03-20.16,20.16s9.03,20.16,20.16,20.16,20.16-9.03,20.16-20.16-9.03-20.16-20.16-20.16Zm98.29,57.71c-6.77,0-12.25,5.48-12.25,12.25s5.48,12.25,12.25,12.25,12.25-5.48,12.25-12.25-5.48-12.25-12.25-12.25Zm-48.63-173.07c-11.47,0-20.77,9.3-20.77,20.77s9.3,20.77,20.77,20.77,20.77-9.3,20.77-20.77-9.3-20.77-20.77-20.77Z"/><path class="cls-5" d="m269.09,360.76c0,19.35-15.68,35.03-35.03,35.03s-35.03-15.68-35.03-35.03,15.68-35.03,35.03-35.03,35.03,15.68,35.03,35.03Zm18.89-89.47c-17.43,0-31.56,14.13-31.56,31.56s14.13,31.56,31.56,31.56,31.56-14.13,31.56-31.56-14.13-31.56-31.56-31.56Zm108.08-51.85c-19.35,0-35.03,15.68-35.03,35.03s15.68,35.03,35.03,35.03,35.03-15.68,35.03-35.03-15.68-35.03-35.03-35.03Zm0,91.76c-18.26,0-33.06,14.8-33.06,33.06s14.8,33.06,33.06,33.06,33.06-14.8,33.06-33.06-14.8-33.06-33.06-33.06Zm104.11,5.98c-13.54,0-24.51,10.97-24.51,24.51s10.97,24.51,24.51,24.51,24.51-10.97,24.51-24.51-10.97-24.51-24.51-24.51Zm52.34-72.13c-13.76,0-24.92,11.16-24.92,24.92s11.16,24.92,24.92,24.92,24.92-11.16,24.92-24.92-11.16-24.92-24.92-24.92Zm151.24,38.31c-15.47,0-28.01,12.54-28.01,28.01s12.54,28.01,28.01,28.01,28.01-12.54,28.01-28.01-12.54-28.01-28.01-28.01Zm44.83-94.16c-20.59,0-37.29,16.69-37.29,37.29s16.69,37.29,37.29,37.29,37.29-16.69,37.29-37.29-16.69-37.29-37.29-37.29Zm82.53,150.18c-12.45,0-22.55,10.1-22.55,22.55s10.1,22.55,22.55,22.55,22.55-10.1,22.55-22.55-10.1-22.55-22.55-22.55Zm56.37-101.83c-11.75,0-21.27,9.52-21.27,21.27s9.52,21.27,21.27,21.27,21.27-9.52,21.27-21.27-9.52-21.27-21.27-21.27Zm72.15,40.07c-11.26,0-20.39,9.13-20.39,20.39s9.13,20.39,20.39,20.39,20.39-9.13,20.39-20.39-9.13-20.39-20.39-20.39Zm97.2-45.11c-19.35,0-35.03,15.68-35.03,35.03s15.68,35.03,35.03,35.03,35.03-15.68,35.03-35.03-15.68-35.03-35.03-35.03Zm62.01,91.57c-11.55,0-20.91,9.36-20.91,20.91s9.36,20.91,20.91,20.91,20.91-9.36,20.91-20.91-9.36-20.91-20.91-20.91Z"/><path class="cls-7" d="m204.33,320.68c0-21.95,17.79-39.74,39.74-39.74s39.74,17.79,39.74,39.74-17.79,39.74-39.74,39.74-39.74-17.79-39.74-39.74Zm174.29,21.6c23.48,0,42.51-19.03,42.51-42.51s-19.03-42.51-42.51-42.51-42.51,19.03-42.51,42.51,19.03,42.51,42.51,42.51Zm154.34,18.14c26.96,0,48.82-21.86,48.82-48.82s-21.86-48.82-48.82-48.82-48.82,21.86-48.82,48.82,21.86,48.82,48.82,48.82Zm179.36-52.06c24.91,0,45.11-20.19,45.11-45.11s-20.19-45.11-45.11-45.11-45.11,20.19-45.11,45.11,20.19,45.11,45.11,45.11Zm148.12,52.99c27.7,0,50.16-22.46,50.16-50.16s-22.46-50.16-50.16-50.16-50.16,22.46-50.16,50.16,22.46,50.16,50.16,50.16Zm240.39-10.11c27.47,0,49.74-22.27,49.74-49.74s-22.27-49.74-49.74-49.74-49.74,22.27-49.74,49.74,22.27,49.74,49.74,49.74Z"/></g><g id="Logo_Text"><path class="cls-2" d="m213.39,321.94l-.15-.15c-19.48,19.48-51.18,19.48-70.66,0-45.6-47.26,23.42-116.25,70.66-70.66l22.27-22.27c-31.81-31.81-83.39-31.81-115.21,0-74.49,75.01,38.1,189.33,114.21,116.15l.21.21c14.74-14.74,23.86-35.11,23.86-57.6h-31.5c0,13.28-5.22,25.36-13.7,34.32Z"/><path class="cls-2" d="m799.17,220.61c-.09-20.6-31.41-20.6-31.5,0,.09,20.6,31.41,20.59,31.5,0Z"/><path class="cls-2" d="m961.11,226.93l-22.29-22.29c-21.91,19.61-25.73,52.86-23.85,81.62h-.05c-3.06,69.26-70.37,62.77-71.05.16h-.05c1.88-28.82-1.89-62.12-23.85-81.78l-6.5,6.5c3.35,10,.74,22.14-6,29.79,6.62,11.53,4.59,32.34,4.85,45.33h-.02c.68,104.33,130.85,111.04,134.21.16h-.02c-.6-19.66-1.44-45.61,14.64-59.33l-.08-.08s.05-.05.08-.08Z"/><path class="cls-2" d="m1191.48,143.74c-9.79,9.79-22.64,14.68-35.5,14.68v.02h-105.63v31.5h65.95v178.23h31.5v-178.23h8.18c20.91,0,41.82-7.98,57.77-23.93l-22.27-22.27Z"/><path class="cls-2" d="m1018.86,158.44c-20.91,0-41.82,7.98-57.77,23.93l22.27,22.27c1.28-1.28,2.62-2.47,4-3.59v167.11h31.5v-178.23h13.13v-31.5h-13.13Z"/><path class="cls-2" d="m367.09,244.68c4.55-9.6,10.63-18.33,17.91-25.9-13.58-9.02-29.25-13.56-44.94-13.56-18.69,0-35.9,6.31-49.65,16.9v-16.9h-31.61v76.03c-.12,1.8-.2,3.61-.2,5.44h.2v81.48h31.61c3.58-43.53-19.24-129.3,49.65-131.45v.02c9.42,0,18.83,2.66,27.03,7.94Z"/><path class="cls-2" d="m783.42,252.13c-5.75,0-11.14-1.56-15.78-4.26v14.98h.03v73.51c-57.37-2.67-50.54-58.74-49.96-100.06h23.6v.07h14.85c-5.61-9.15-5.59-22.43.04-31.57h-54.63c-15.57.01-31.12,4.49-44.62,13.38,7.3,7.57,13.39,16.3,17.96,25.9,3.58-2.27,7.37-4.05,11.31-5.32-4.95,62.27,6.22,125.55,81.46,129.1v-.07h31.5v-104.95h.03v-14.98c-4.64,2.7-10.03,4.26-15.78,4.26Z"/><path class="cls-2" d="m586.29,204.7v.23c-20.85,0-39.86,7.86-54.24,20.78,6.86,9.17,11.89,19.29,15.09,29.84,9.11-11.63,23.26-19.12,39.14-19.12v-.23c25.25,0,46.12,19.03,49.06,43.5-25.43-14.26-71.22-10.91-98.66,5.28-1.43-75.69-85.07-96.56-131.93-62.69-14.74,11.61-25.38,28.17-29.41,47.19-.96,5.15-1.49,10.61-1.55,16.39h-.17c0,1.59.06,3.17.15,4.74.04,1.51.13,3.01.25,4.5,1.4,13.32,6.01,25.69,13.04,36.32,3.9,5.65,8.53,10.74,13.71,15.21,11.91,10.69,26.98,17.9,43.64,20.11,22,3.41,45.3-1.77,63.72-18.15-6.26-8.77-9.76-18.74-9.76-29.38,0-3.28.35-6.49.99-9.63-8.47,15.7-25.06,26.4-44.12,26.4-21.89,0-40.53-14.11-47.34-33.71h93.56s.03-.09.05-.14h17.43c-3.11,5.32-4.82,11.07-4.82,17.08,0,10.64,5.35,20.48,14.4,28.5,25.61,21,79.02,26.82,107.07,10.8v9.36h31.62v-82.25c0-44.69-36.23-80.92-80.92-80.92Zm-178.59,66.41c13.33-45.38,81.77-45.36,95.08,0h-95.08Zm219.18,56.44c-20.44,12.85-67.2,12.67-81.23-8.38.05-.55,1.78-4.22,8.71-8.38,18.36-11.56,54.16-11.57,72.52,0q11.58,8.39,0,16.75Z"/><text class="cls-1" transform="translate(163.3 182.89)"><tspan x="0" y="0">SNiC p</tspan><tspan class="cls-9" x="145.81" y="0">r</tspan><tspan x="167.32" y="0">esents:</tspan></text></g></svg>