<svg xmlns="http://www.w3.org/2000/svg" viewBox="0 0 895.83 359.2"><defs><style>.cls-1{fill:#fff}.cls-2{fill:#d5a361}</style></defs><title>Asset 1</title><g id="Layer_2" data-name="Layer 2"><g id="Layer_1-2" data-name="Layer 1"><polygon points="252.81 75.2 198.04 75.2 191.8 85.42 185.57 75.2 130.79 75.2 130.79 99.98 252.81 99.98 252.81 75.2" class="cls-1"/><polygon points="168.57 47.33 130.79 47.33 130.79 72.1 183.68 72.1 168.57 47.33" class="cls-1"/><polygon points="252.81 47.33 215.03 47.33 199.92 72.1 252.81 72.1 252.81 47.33" class="cls-1"/><path d="M372.47,155.72h60.07c24.54,0,38.5-10.19,41.15-24.78H372.47Z" class="cls-1"/><path d="M432.54,47.33H372.47V72.1H473.69C471,57.52,457.08,47.33,432.54,47.33" class="cls-1"/><path d="M456.39,100c10.66-4.13,17.31-11.13,17.31-23.63v-.3c0-.29,0-.56-.05-.85H262.89A52.62,52.62,0,0,0,256,100Z" class="cls-1"/><rect width="36.24" height="24.78" x="476.83" y="47.33" class="cls-1"/><rect width="140.59" height="24.78" x="372.47" y="103.07" class="cls-1"/><rect width="36.24" height="24.78" x="476.83" y="130.94" class="cls-1"/><rect width="36.24" height="24.78" x="606.53" y="75.2" class="cls-2"/><rect width="36.24" height="24.78" x="606.53" y="103.07" class="cls-2"/><rect width="102.47" height="24.77" x="516.21" class="cls-1"/><rect width="126.6" height="24.47" x="402.72" y="178.81" class="cls-1"/><rect width="127.61" height="24.78" x="768.22" y="130.95" class="cls-1"/><rect width="36.24" height="24.78" x="606.53" y="130.94" class="cls-2"/><rect width="139.41" height="24.78" x="606.53" y="47.33" class="cls-2"/><rect width="36.24" height="24.78" x="677.8" y="75.2" class="cls-2"/><rect width="36.24" height="24.78" x="677.8" y="103.07" class="cls-2"/><rect width="36.24" height="24.78" x="677.8" y="130.94" class="cls-2"/><rect width="36.23" height="24.78" x="516.21" y="47.33" class="cls-1"/><rect width="75.61" height="24.78" x="476.83" y="75.2" class="cls-1"/><rect width="36.23" height="24.78" x="516.21" y="103.07" class="cls-1"/><rect width="87.18" height="24.78" x="516.21" y="130.94" class="cls-1"/><path d="M312.79,47.33c-20.49,0-38,9.82-48,24.77H360.7c-9.87-15-27.33-24.77-47.91-24.77" class="cls-1"/><path d="M312.49,155.72c20.49,0,38-9.82,48-24.78H264.59c9.87,15,27.32,24.78,47.9,24.78" class="cls-1"/><path d="M88.79,103.07v24.78H362.4a52.73,52.73,0,0,0,6.93-24.78Z" class="cls-1"/><rect width="128.62" height="9.42" x="226.37" y="82.88" class="cls-2"/><rect width="128.62" height="9.42" x="322.39" y="7.68" class="cls-2"/><rect width="128.62" height="9.42" x="459.25" y="110.75" class="cls-2"/><rect width="128.62" height="9.42" x="631.6" y="173.52" class="cls-2"/><rect width="128.62" height="9.42" x="687.27" y="82.88" class="cls-1"/><rect width="59.46" height="24.78" x="193.35" y="130.94" class="cls-1"/><rect width="59.46" height="24.78" x="130.79" y="130.94" class="cls-1"/><rect width="128.62" height="9.42" x="36.24" y="138.63" class="cls-2"/><rect width="24.78" height="24.78" y="103.07" class="cls-1"/><path d="M220.81,355.81a4,4,0,0,1-2-.51l6.43-13.76a15.32,15.32,0,0,1,.79,5.29c0,5.63-1.76,9-5.21,9m-4.36-3.49a15.29,15.29,0,0,1-.87-5.49c0-5.67,1.8-9,5.23-9a3.87,3.87,0,0,1,2.14.56Zm4.36,6.88c5.7,0,8.87-4.73,8.87-12.37s-3.17-12.37-8.87-12.37-8.88,4.73-8.88,12.37,3.17,12.37,8.88,12.37m-34.53-.28h15.17v-3.38h-9.36L199,346.8a8.78,8.78,0,0,0,2-5.5c0-4.15-2.62-6.84-7-6.84a7.08,7.08,0,0,0-7.21,6.49l3.48.66c.31-2.31,1.66-3.77,3.7-3.77s3.39,1.35,3.39,3.56c0,1.46-.42,2.59-1.94,4.5l-9.09,11.47Zm-19.38-3.11a4,4,0,0,1-2-.51l6.43-13.76a15.3,15.3,0,0,1,.8,5.29c0,5.63-1.76,9-5.22,9m-4.36-3.49a15.53,15.53,0,0,1-.86-5.49c0-5.67,1.79-9,5.22-9a3.87,3.87,0,0,1,2.14.56Zm4.36,6.88c5.7,0,8.88-4.73,8.88-12.37s-3.18-12.37-8.88-12.37S158,339.19,158,346.83s3.18,12.37,8.88,12.37m-34.52-.28h15.17v-3.38h-9.37l6.88-8.74a8.72,8.72,0,0,0,2-5.5c0-4.15-2.62-6.84-7-6.84a7.08,7.08,0,0,0-7.22,6.49l3.49.66c.31-2.31,1.65-3.77,3.69-3.77s3.39,1.35,3.39,3.56c0,1.46-.41,2.59-1.93,4.5l-9.09,11.47Z" class="cls-2"/><path d="M301.94,320.32c4.43,0,8-2.41,8-7.35,0-4.4-3-5.92-6.71-6.88-3.21-.83-5.08-1.56-5.08-3.81,0-2.07,1.6-3.18,3.74-3.18a4.55,4.55,0,0,1,4.42,3.25l3.14-1.59a7.52,7.52,0,0,0-7.56-5.18c-4.67,0-7.5,2.8-7.5,6.57,0,4.11,2.83,5.94,6.46,7s5.32,1.86,5.32,4.15-1.86,3.52-4.18,3.52c-3.45,0-5.08-2.21-5.73-4.94l-3.42,1.31c.93,4.74,4.52,7.15,9.08,7.15m-34.79-.27h15.68v-3.52H270.91v-7.61h9.85V305.4h-9.85v-6h11.57v-3.52H267.15ZM243.4,305.6v-6.22h4.95c2.07,0,3.35.9,3.35,3.11s-1.28,3.11-3.35,3.11Zm-3.76,14.45h3.76V309.13h3.22l6.77,10.92h4.32l-7-11.24a6,6,0,0,0,4.8-6.32c0-4.14-2.69-6.63-7.25-6.63h-8.64Zm-18.59.27c2.74,0,4.68-1.1,5.75-3.07l.25,2.8h3.12v-12.2h-8.74v3.31h5c-.31,3.81-2.32,5.64-5.12,5.64-3.38,0-5.87-2.52-5.87-8.85s2.56-8.85,6.05-8.85c2.66,0,4.32,1.46,5.22,4.92l3.55-1.08c-1.17-4.66-4.18-7.36-9-7.36-4.52,0-9.7,3.49-9.7,12.37,0,8.61,4.87,12.37,9.43,12.37m-35.46-.27h3.59V303l9.16,17.07h3.73V295.86h-3.58V313l-9.17-17.1h-3.73ZM166.9,316.8c-3.11,0-5.57-2.38-5.57-8.85s2.46-8.85,5.57-8.85,5.6,2.39,5.6,8.85-2.49,8.85-5.6,8.85m0,3.52c5.25,0,9.4-4.07,9.4-12.37s-4.15-12.37-9.4-12.37-9.4,4.08-9.4,12.37,4.14,12.37,9.4,12.37m-26,0c4.91,0,7.71-3.07,8.88-7.32l-3.56-1.11c-1,3.74-3,4.91-5.32,4.91-3.42,0-6.29-2.25-6.29-8.85s2.87-8.85,6.29-8.85c2.35,0,4.32,1.14,5.32,4.88l3.56-1.07c-1.17-4.25-4-7.33-8.88-7.33-5.46,0-10.12,4-10.12,12.37s4.66,12.37,10.12,12.37" class="cls-1"/><path d="M406.37,271.6l3.11-9.64,3.11,9.64Zm-6.95,9.57h3.91l1.93-6.05h8.47l1.93,6.05h3.87L411.45,257h-3.9Zm-15.93.28c4.91,0,7.71-3.08,8.88-7.32L388.82,273c-1,3.73-3,4.91-5.33,4.91-3.42,0-6.29-2.25-6.29-8.85s2.87-8.85,6.29-8.85c2.35,0,4.32,1.14,5.33,4.87l3.55-1.07c-1.17-4.25-4-7.32-8.88-7.32-5.46,0-10.12,4-10.12,12.37s4.66,12.37,10.12,12.37m-35.27-.28h14.71v-3.38h-5.46V260.37h5.46V257H348.22v3.38h5.49v17.42h-5.49Zm-21.46,0h3.76V260.51h7.15V257h-18.1v3.52h7.19Zm-28.2-9.57,3.11-9.64,3.11,9.64Zm-6.95,9.57h3.91l1.93-6.05h8.47l1.93,6.05h3.87L303.63,257h-3.9Zm-25.67,0h3.52V264.83l4.11,9.74h2.28l4.12-9.74v16.34h3.55V257h-3.76l-5.05,12.71-5-12.71h-3.73ZM243.4,266.73v-6.22h4.95c2.07,0,3.35.9,3.35,3.11s-1.28,3.11-3.35,3.11Zm-3.76,14.44h3.76V270.25h3.22l6.77,10.92h4.32l-7-11.23a6,6,0,0,0,4.8-6.32c0-4.15-2.69-6.63-7.25-6.63h-8.64Zm-18.83-3.24c-3.12,0-5.57-2.39-5.57-8.85s2.45-8.85,5.57-8.85,5.59,2.38,5.59,8.85-2.48,8.85-5.59,8.85m0,3.52c5.25,0,9.39-4.07,9.39-12.37s-4.14-12.37-9.39-12.37-9.4,4.07-9.4,12.37,4.14,12.37,9.4,12.37m-34.52-.28h3.76V270.32h9.64V266.8h-9.64v-6.12h11.33V257H186.29Zm-27.65,0h3.59V264.1l9.16,17.07h3.73V257h-3.59v17.1L162.37,257h-3.73Zm-26,0H147.3v-3.38h-5.46V260.37h5.46V257H132.59v3.38h5.49v17.42h-5.49Z" class="cls-1"/><path d="M347.9,242.3h15.38v-3.53H351.67V218.11H347.9Zm-22.39-9.57,3.11-9.64,3.11,9.64Zm-6.94,9.57h3.9l1.94-6.05h8.46l1.94,6.05h3.86l-8.08-24.19h-3.91Zm-20-9.57,3.12-9.64,3.1,9.64Zm-6.94,9.57h3.91l1.93-6.05h8.46l1.94,6.05h3.87l-8.08-24.19h-3.91Zm-25.15,0H270V225.23l9.17,17.07h3.73V218.11h-3.6v17.1l-9.15-17.1h-3.73Zm-18.7-3.25c-3.11,0-5.57-2.39-5.57-8.85s2.46-8.85,5.57-8.85,5.6,2.39,5.6,8.85-2.49,8.85-5.6,8.85m0,3.52c5.26,0,9.4-4.07,9.4-12.37s-4.14-12.37-9.4-12.37-9.4,4.08-9.4,12.37,4.14,12.37,9.4,12.37m-34.31-.27h14.71v-3.39H222.7V221.49h5.46v-3.38H213.45v3.38h5.49v17.42h-5.49Zm-21.46,0h3.76V221.63h7.16v-3.52H184.8v3.52H192Zm-28.2-9.57,3.11-9.64,3.11,9.64Zm-6.95,9.57h3.91l1.93-6.05h8.47l1.93,6.05H177l-8.08-24.19H165Zm-25.15,0h3.59V225.23l9.16,17.07h3.73V218.11h-3.59v17.1l-9.16-17.1h-3.73Z" class="cls-1"/><path d="M347.32,203.42h3.59V186.35l9.16,17.07h3.72V179.23h-3.58v17.11L351,179.23h-3.72Zm-26.27,0h15.69V199.9H324.82v-7.61h9.84v-3.52h-9.84v-6h11.57v-3.52H321.05Zm-21.25,0h3.76V182.75h7.16v-3.52H292.61v3.52h7.19Zm-33.34,0h3.59V186.35l9.16,17.07h3.72V179.23h-3.59v17.11l-9.16-17.11h-3.72Zm-26.27,0h15.69V199.9H244v-7.61h9.84v-3.52H244v-6h11.57v-3.52H240.19Zm-23.88-3.52V182.75h2.35c4,0,7.64,2,7.64,8.58s-3.63,8.57-7.64,8.57Zm-3.76,3.52H219c6.18,0,11.19-3.76,11.19-12.09s-5-12.1-11.19-12.1h-6.46Zm-18.7.28c4.88,0,8.64-3.08,8.64-9.09V179.23h-3.76v15.52c0,3.39-1.56,5.43-4.88,5.43-3.14,0-4.84-2-4.84-5.43V179.23h-3.76v15.38c0,6,3.73,9.09,8.6,9.09M165,203.42h3.77V182.75H176v-3.52h-18.1v3.52H165Zm-24.81.28c4.43,0,8-2.42,8-7.36,0-4.39-3-5.91-6.71-6.88-3.21-.83-5.08-1.56-5.08-3.8,0-2.07,1.59-3.18,3.74-3.18a4.55,4.55,0,0,1,4.42,3.25l3.14-1.59a7.51,7.51,0,0,0-7.56-5.18c-4.67,0-7.5,2.8-7.5,6.56,0,4.11,2.83,5.94,6.46,7s5.32,1.87,5.32,4.15-1.86,3.53-4.18,3.53c-3.46,0-5.08-2.22-5.73-5l-3.42,1.31c.93,4.74,4.52,7.16,9.08,7.16" class="cls-1"/></g></g></svg>