<?xml version="1.0" encoding="UTF-8" standalone="no"?>
<!-- Created with Inkscape (http://www.inkscape.org/) -->

<svg
   xmlns:dc="http://purl.org/dc/elements/1.1/"
   xmlns:cc="http://creativecommons.org/ns#"
   xmlns:rdf="http://www.w3.org/1999/02/22-rdf-syntax-ns#"
   xmlns:svg="http://www.w3.org/2000/svg"
   xmlns="http://www.w3.org/2000/svg"
   xmlns:sodipodi="http://sodipodi.sourceforge.net/DTD/sodipodi-0.dtd"
   xmlns:inkscape="http://www.inkscape.org/namespaces/inkscape"
   version="1.1"
   id="svg4651"
   width="335.67032"
   height="119.97202"
   viewBox="0 0 335.67032 119.97202"
   sodipodi:docname="snic_logo.svg"
   inkscape:version="0.92.2 2405546, 2018-03-11">
  <metadata
     id="metadata4657">
    <rdf:RDF>
      <cc:Work
         rdf:about="">
        <dc:format>image/svg+xml</dc:format>
        <dc:type
           rdf:resource="http://purl.org/dc/dcmitype/StillImage" />
        <dc:title></dc:title>
      </cc:Work>
    </rdf:RDF>
  </metadata>
  <defs
     id="defs4655" />
  <sodipodi:namedview
     pagecolor="#ffffff"
     bordercolor="#666666"
     borderopacity="1"
     objecttolerance="10"
     gridtolerance="10"
     guidetolerance="10"
     inkscape:pageopacity="0"
     inkscape:pageshadow="2"
     inkscape:window-width="2556"
     inkscape:window-height="1400"
     id="namedview4653"
     showgrid="false"
     fit-margin-top="0"
     fit-margin-left="0"
     fit-margin-right="0"
     fit-margin-bottom="0"
     inkscape:zoom="4.7258303"
     inkscape:cx="131.95379"
     inkscape:cy="13.231255"
     inkscape:window-x="1920"
     inkscape:window-y="18"
     inkscape:window-maximized="0"
     inkscape:current-layer="svg4651" />
  <path
     style="fill:#000000;stroke-width:1.33333337"
     d="M 15.103654,118.27287 C 7.6765944,115.3666 5.1220344,113.30409 2.4413544,108.04951 c -5.17455,-10.142955 -1.83694002,-18.675205 7.3053,-18.675205 5.7674596,0 8.6903396,3.89412 8.6903396,11.578065 0,8.02866 3.60118,11.0886 13.0499,11.0886 13.11939,0 21.62239,-7.14389 21.61178,-18.157385 -0.005,-6.16705 -2.36716,-10.29849 -12.48358,-21.84262 -4.17716,-4.76665 -9.16178,-11.84793 -11.07694,-15.73617 -12.49508,-25.367957 10.59312,-49.9683629 41.13666,-43.830987 10.4041,2.090582 16.73419,13.194242 10.65719,18.69385 -4.51293,4.084151 -9.15229,2.776031 -15.81784,-4.460016 -5.52388,-5.996676 -6.71216,-6.666666 -11.82392,-6.666666 -4.70896,0 -6.27444,0.703042 -9.13473,4.1023 -6.80635,8.088886 -4.29471,16.85377 9.1405,31.897699 14.78895,16.55975 18.54719,26.43775 14.87051,39.08506 -2.78411,9.577005 -12.84779,19.183315 -23.67072,22.594955 -8.37415,2.6397 -23.72968,2.92417 -29.79215,0.55188 z m 140.372866,0.35008 c -1.26164,-0.73531 -2.95257,-3.78322 -3.75767,-6.77312 -1.75104,-6.50285 0.2712,-17.923605 7.60057,-42.924955 7.6401,-26.061127 10.1537,-36.664453 9.2501,-39.019441 -3.0737,-8.009866 -31.7592,11.029232 -39.51112,26.224251 -2.64553,5.18567 -7.91265,24.35501 -13.98877,50.911285 l -2.36428,10.33334 h -9.13419 c -5.023796,0 -9.134166,-0.37908 -9.134166,-0.84242 0,-0.46332 1.73069,-7.51332 3.84598,-15.66666 2.115296,-8.153345 6.369456,-25.624265 9.453696,-38.824255 3.08424,-13.199999 6.1356,-26.06015 6.78078,-28.578113 1.36206,-5.315577 -0.2417,-8.145412 -4.05161,-7.149098 -1.39687,0.365289 -6.09279,3.879468 -10.43537,7.809285 -6.956746,6.295492 -8.179336,6.937664 -10.281586,5.400464 -3.11547,-2.278088 -2.48741,-3.115159 9.71159,-12.943657 C 114.3638,14.57253 128.62061,8.7772051 133.84969,12.600802 c 2.32159,1.697586 2.32124,2.137778 -0.009,12.267138 -4.67409,20.313852 -4.99311,19.599586 4.73057,10.591406 10.30092,-9.542937 27.97906,-21.276444 34.92716,-23.18226 9.3363,-2.5608449 15.6057,2.14752 15.6057,11.719995 0,2.106847 -2.0568,10.928615 -4.5707,19.603929 -15.2225,52.532015 -16.509,58.08788 -14.26,61.58265 1.7893,2.78029 5.9552,0.80468 15.6548,-7.424085 7.668,-6.50524 8.9654,-7.16718 10.6826,-5.45005 1.7171,1.71713 0.8142,3.03015 -7.4337,10.810805 -15.0419,14.18976 -26.7287,19.56588 -33.7002,15.50262 z m 53.9196,-0.66055 c -2.1491,-1.50527 -2.9587,-3.42065 -2.9574,-6.99703 0,-5.79432 5.1014,-27.504225 10.8246,-46.084415 2.789,-9.05435 3.6239,-13.589773 2.6762,-14.537483 -1.4574,-1.457403 -2.3045,-0.994623 -11.4142,6.236003 -3.6809,2.92165 -5.2549,3.49491 -6.4139,2.33593 -2.9274,-2.92742 14.2415,-17.347633 23.3256,-19.591248 5.9286,-1.464272 10.3333,0.250555 10.3333,4.022959 0,1.790434 -3.0074,13.928999 -6.6831,26.974599 -6.9499,24.66614 -9.1975,36.811635 -7.0569,38.134595 0.6885,0.42548 4.7351,-1.96038 8.9926,-5.30191 6.0609,-4.757025 8.0006,-5.681765 8.938,-4.261145 2.154,3.264405 -15,17.255265 -24.8982,20.306995 -1.554,0.47912 -3.9682,-0.0483 -5.6666,-1.23785 z m 54.23801,-0.93903 c -25.93351,-17.273315 1.1718,-90.868878 37.9888,-103.146253 14.0001,-4.6686069 29.9938,-1.920617 32.8714,5.647853 1.866,4.908087 1.5891,6.869619 -1.3907,9.849339 -3.7389,3.738991 -9.4227,3.333012 -18.6666,-1.333333 -14.7225,-7.431902 -23.2302,-4.07364 -31.2394,12.331189 -5.9597,12.206924 -8.7427,22.70864 -9.7061,36.62598 -1.3796,19.93173 4.6152,30.694665 16.3594,29.370935 7.0986,-0.80012 18.1811,-5.91733 26.2769,-12.133005 l 6.3575,-4.88108 1.5796,3.46665 c 1.8671,4.09792 1.1381,4.81157 -15.6279,15.299145 -18.4336,11.53065 -35.7047,14.96252 -44.8029,8.90258 z M 233.74252,13.822722 c -2.3775,-2.377549 -1.9265,-8.6236609 0.8656,-11.9880019 2.3448,-2.82521001 10.1486,-2.26667201 11.8142,0.845564 4.2045,7.8560519 -6.5317,17.2905089 -12.6798,11.1424379 z"
     id="path4661"
     inkscape:connector-curvature="0" />
</svg>
