<?xml version="1.0" encoding="utf-8"?>
<!-- Generator: Adobe Illustrator 27.9.0, SVG Export Plug-In . SVG Version: 6.00 Build 0)  -->
<svg version="1.1" id="Layer_1" xmlns="http://www.w3.org/2000/svg" xmlns:xlink="http://www.w3.org/1999/xlink" x="0px" y="0px"
	 viewBox="0 0 841.89 595.28" style="enable-background:new 0 0 841.89 595.28;" xml:space="preserve">
<style type="text/css">
	.st0{fill:#95C11F;}
	.st1{fill:#006633;}
	.st2{fill:#009FE3;}
	.st3{fill:#E94E1B;}
	.st4{fill:#E94E1B;stroke:#E94E1B;stroke-miterlimit:10;}
	.st5{stroke:#FFFFFF;stroke-width:3;stroke-miterlimit:10;}
	.st6{fill:#FFFFFF;}
	.st7{fill:#1D4425;}
	.st8{fill:none;stroke:#95C11F;stroke-width:3;stroke-miterlimit:10;}
</style>
<rect class="st7" width="841.89" height="595.28"/>
<path class="st0" d="M704.17,333.75c-15.76-14.53-22.96-32.15-20.87-53.28c1.16-11.78,5.84-22.2,13.13-31.52
	c13.64-17.45,31.68-28.83,51.64-37.53c15.88-6.92,32.42-11.74,49.5-14.64c2.3-0.39,4.98-1.13,6.5-0.2c1.53,0.94,1.91,3.56,2.4,5.73
	c5.97,26.47,7.79,53.12,2.89,79.97c-2.56,14.02-7.3,27.28-15.33,39.17c-16.51,24.48-48.56,33.47-75.44,21.25
	c-0.79-0.36-1.61-0.67-2.58-1.08c-0.46,0.69-0.91,1.36-1.35,2.03c-6.58,9.86-2.66,4.02-9.26,13.86c-2.08,3.1-6.04,4.1-9.2,2.46
	c-3.13-1.63-4.62-5.32-3.43-8.71c0.29-0.82,0.79-1.58,1.28-2.32c6.4-9.62,2.34-3.52,8.75-13.13
	C703.24,335.14,703.69,334.47,704.17,333.75z"/>
<path class="st6" d="M33.91,314.84c0.22-2.47,0.98-4.9,2.29-7.28c1.31-2.38,2.8-4.3,4.47-5.75c3.05,1.82,6.52,3.46,10.41,4.94
	s7.78,2.21,11.66,2.21c3.16,0,5.43-0.76,6.81-2.29c1.38-1.53,2.07-3.16,2.07-4.91c0-1.16-0.38-2.5-1.14-4.01
	c-0.76-1.51-2.67-2.9-5.72-4.17l-13.14-5.45c-4.51-1.89-8.23-4.42-11.17-7.58c-2.94-3.16-4.42-7.34-4.42-12.54
	c0-4.54,1.18-8.52,3.54-11.94c2.36-3.42,5.55-6.08,9.57-7.99c4.01-1.91,8.49-2.86,13.44-2.86c5.16,0,10,0.67,14.53,2.02
	c4.52,1.34,8.2,2.76,11.04,4.25c-0.14,2.51-0.73,4.92-1.77,7.22c-1.03,2.31-2.41,4.24-4.12,5.8c-2.76-1.31-6-2.52-9.7-3.63
	c-3.71-1.11-7.03-1.66-9.98-1.66c-3.13,0-5.35,0.71-6.68,2.13c-1.33,1.42-1.99,2.85-1.99,4.31c0,1.38,0.46,2.62,1.39,3.71
	c0.93,1.09,2.59,2.14,4.99,3.16l13.41,5.5c3.53,1.45,6.51,3.26,8.97,5.42c2.45,2.16,4.31,4.6,5.59,7.3c1.27,2.71,1.91,5.64,1.91,8.8
	c0,4.4-1.06,8.37-3.19,11.91c-2.13,3.54-5.31,6.34-9.57,8.4c-4.25,2.05-9.56,3.08-15.92,3.08c-4.4,0-9.09-0.7-14.07-2.1
	C42.45,319.46,37.95,317.46,33.91,314.84z"/>
<path class="st6" d="M160.16,293.85c0,6.14-1.14,11.38-3.43,15.73c-2.29,4.34-5.62,7.66-10,9.95c-4.38,2.29-9.73,3.43-16.05,3.43
	c-6.29,0-11.63-1.14-16.02-3.43c-4.4-2.29-7.74-5.6-10.03-9.95c-2.29-4.34-3.43-9.59-3.43-15.73v-46.99l0.76-0.71h6.38
	c3.34,0,5.9,0.86,7.69,2.59c1.78,1.73,2.67,4.53,2.67,8.42v36.85c0,4.98,0.91,8.73,2.73,11.26c1.82,2.53,4.91,3.79,9.27,3.79
	c4.4,0,7.5-1.26,9.32-3.79c1.82-2.53,2.72-6.28,2.72-11.26v-47.15c1.45-0.29,2.95-0.47,4.5-0.54s2.88-0.11,4.01-0.11
	c1.05,0,2.46,0.04,4.23,0.11c1.76,0.07,3.33,0.25,4.72,0.54V293.85z"/>
<path class="st6" d="M170.02,314.84c0.22-2.47,0.98-4.9,2.29-7.28c1.31-2.38,2.8-4.3,4.47-5.75c3.05,1.82,6.52,3.46,10.41,4.94
	s7.78,2.21,11.66,2.21c3.16,0,5.43-0.76,6.81-2.29c1.38-1.53,2.07-3.16,2.07-4.91c0-1.16-0.38-2.5-1.14-4.01
	c-0.76-1.51-2.67-2.9-5.72-4.17l-13.14-5.45c-4.51-1.89-8.23-4.42-11.17-7.58c-2.94-3.16-4.42-7.34-4.42-12.54
	c0-4.54,1.18-8.52,3.54-11.94c2.36-3.42,5.55-6.08,9.57-7.99c4.01-1.91,8.49-2.86,13.44-2.86c5.16,0,10,0.67,14.53,2.02
	c4.52,1.34,8.2,2.76,11.04,4.25c-0.14,2.51-0.73,4.92-1.77,7.22c-1.03,2.31-2.41,4.24-4.12,5.8c-2.76-1.31-6-2.52-9.7-3.63
	c-3.71-1.11-7.03-1.66-9.98-1.66c-3.13,0-5.35,0.71-6.68,2.13c-1.33,1.42-1.99,2.85-1.99,4.31c0,1.38,0.46,2.62,1.39,3.71
	c0.93,1.09,2.59,2.14,4.99,3.16l13.41,5.5c3.53,1.45,6.51,3.26,8.97,5.42c2.45,2.16,4.31,4.6,5.59,7.3c1.27,2.71,1.91,5.64,1.91,8.8
	c0,4.4-1.06,8.37-3.19,11.91c-2.13,3.54-5.31,6.34-9.57,8.4c-4.25,2.05-9.56,3.08-15.92,3.08c-4.4,0-9.09-0.7-14.07-2.1
	C178.56,319.46,174.06,317.46,170.02,314.84z"/>
<path class="st6" d="M236.46,261.37c-0.25-1.31-0.42-2.59-0.49-3.84c-0.07-1.25-0.11-2.37-0.11-3.35c0-1.02,0.03-2.16,0.11-3.43
	c0.07-1.27,0.24-2.56,0.49-3.87h53.96c0.29,0.91,0.51,1.97,0.65,3.19c0.14,1.22,0.22,2.39,0.22,3.52c0,2.84-0.73,4.84-2.21,6.02
	s-3.77,1.77-6.9,1.77h-3.22c-0.8,0-1.93-0.02-3.41-0.05c-1.47-0.03-2.63-0.05-3.46-0.05h-17.5c-0.8,0-1.94,0.02-3.43,0.05
	c-1.49,0.04-2.64,0.05-3.44,0.05H236.46z M254.61,269.32c0-1.49,0.02-2.83,0.05-4.01c0.03-1.18,0.05-2.53,0.05-4.06v-7.19H272v7.19
	c0,1.53,0.02,2.88,0.05,4.06c0.03,1.18,0.05,2.52,0.05,4.01v52c-1.49,0.25-3.02,0.43-4.58,0.52c-1.56,0.09-2.94,0.14-4.14,0.14
	c-1.23,0-2.63-0.05-4.2-0.14c-1.56-0.09-3.09-0.26-4.58-0.52V269.32z"/>
<path class="st6" d="M310.48,246.87c1.38-0.22,3.04-0.38,4.99-0.49c1.94-0.11,3.64-0.16,5.1-0.16c1.38,0,3.06,0.05,5.04,0.16
	c1.98,0.11,3.66,0.31,5.04,0.6l23.44,73.21c-1.2,0.69-2.75,1.22-4.66,1.58c-1.91,0.36-3.68,0.54-5.31,0.54
	c-2.76,0-4.93-0.65-6.49-1.94c-1.56-1.29-2.87-3.81-3.93-7.55l-7.8-27.64c-0.83-3.05-1.81-6.65-2.92-10.79
	c-1.11-4.14-2.13-8.01-3.08-11.61h-0.65c-0.36,2-0.85,4.23-1.47,6.7c-0.62,2.47-1.26,4.93-1.93,7.39c-0.67,2.45-1.3,4.68-1.88,6.68
	l-11.12,37.89c-1.09,0.25-2.25,0.42-3.49,0.52c-1.24,0.09-2.54,0.13-3.93,0.13c-1.31,0-2.79-0.11-4.44-0.32
	c-1.65-0.22-2.97-0.51-3.95-0.87l-0.65-0.92L310.48,246.87z M311.79,305.74c-0.51,0-1.1-0.01-1.77-0.03
	c-0.67-0.02-1.34-0.03-1.99-0.05c-0.65-0.02-1.25-0.03-1.8-0.03h-9.16l5.29-13.57h8.07c0.51,0,1.09-0.01,1.74-0.03
	c0.65-0.02,1.31-0.04,1.96-0.05c0.65-0.02,1.23-0.03,1.74-0.03h7.96c0.54,0,1.13,0.01,1.77,0.03c0.63,0.02,1.29,0.03,1.96,0.05
	c0.67,0.02,1.26,0.03,1.77,0.03h8.34l4.42,13.57h-9.21c-0.51,0-1.1,0.01-1.77,0.03c-0.67,0.02-1.34,0.04-2.02,0.05
	c-0.67,0.02-1.26,0.03-1.77,0.03H311.79z"/>
<path class="st6" d="M364.45,246.87c1.38-0.29,2.92-0.47,4.61-0.54c1.69-0.07,3.06-0.11,4.12-0.11c1.16,0,2.54,0.04,4.14,0.11
	c1.6,0.07,3.12,0.25,4.58,0.54v74.46c-1.45,0.25-2.98,0.43-4.58,0.52c-1.6,0.09-2.98,0.14-4.14,0.14c-1.05,0-2.43-0.05-4.12-0.14
	c-1.69-0.09-3.23-0.26-4.61-0.52V246.87z"/>
<path class="st6" d="M399.61,247.19c1.38-0.33,3.16-0.57,5.34-0.73c2.18-0.16,3.83-0.25,4.96-0.25c1.12,0,2.62,0.04,4.5,0.11
	c1.87,0.07,3.75,0.25,5.64,0.54l-4.42,19.84l-1.14,0.38c0.29,3.09,0.54,6.59,0.74,10.49c0.2,3.91,0.35,7.8,0.46,11.69
	c0.11,3.89,0.16,7.34,0.16,10.36v21.69c-1.42,0.25-2.82,0.43-4.2,0.52c-1.38,0.09-2.62,0.14-3.71,0.14c-1.05,0-2.36-0.05-3.92-0.14
	c-1.56-0.09-3.04-0.26-4.42-0.52V247.19z M421.03,282.3c-1.24-2.8-2.38-5.54-3.43-8.23c-1.05-2.69-1.94-5.09-2.67-7.2l-8.07-9.32
	l13.19-10.68l16.79,38.92c1.38,3.2,2.66,6.25,3.84,9.16c1.18,2.91,2.17,5.38,2.97,7.41l8.83,9.54l-14.23,9.43L421.03,282.3z
	 M458.86,246.87V321c-1.38,0.33-3.19,0.57-5.42,0.74c-2.24,0.16-3.94,0.24-5.1,0.24c-1.13,0-2.61-0.05-4.44-0.14
	s-3.72-0.26-5.64-0.52l4.58-18.81l1.25-0.38c-0.29-3.38-0.55-7.09-0.76-11.12c-0.22-4.03-0.37-7.92-0.46-11.66
	c-0.09-3.74-0.14-6.87-0.14-9.38v-13.3c0-3.89,0.79-6.61,2.37-8.18c1.58-1.56,4.04-2.34,7.39-2.34h5.67L458.86,246.87z"/>
<path class="st6" d="M493.2,246.87c1.38-0.22,3.04-0.38,4.99-0.49c1.94-0.11,3.64-0.16,5.1-0.16c1.38,0,3.06,0.05,5.04,0.16
	c1.98,0.11,3.66,0.31,5.04,0.6l23.44,73.21c-1.2,0.69-2.75,1.22-4.66,1.58c-1.91,0.36-3.68,0.54-5.31,0.54
	c-2.76,0-4.93-0.65-6.49-1.94c-1.56-1.29-2.87-3.81-3.93-7.55l-7.8-27.64c-0.83-3.05-1.81-6.65-2.92-10.79
	c-1.11-4.14-2.13-8.01-3.08-11.61h-0.65c-0.36,2-0.85,4.23-1.47,6.7c-0.62,2.47-1.26,4.93-1.93,7.39c-0.67,2.45-1.3,4.68-1.88,6.68
	l-11.12,37.89c-1.09,0.25-2.25,0.42-3.49,0.52c-1.24,0.09-2.54,0.13-3.93,0.13c-1.31,0-2.79-0.11-4.44-0.32
	c-1.65-0.22-2.97-0.51-3.95-0.87l-0.65-0.92L493.2,246.87z M494.51,305.74c-0.51,0-1.1-0.01-1.77-0.03
	c-0.67-0.02-1.34-0.03-1.99-0.05c-0.65-0.02-1.25-0.03-1.8-0.03h-9.16l5.29-13.57h8.07c0.51,0,1.09-0.01,1.74-0.03
	c0.65-0.02,1.31-0.04,1.96-0.05c0.65-0.02,1.23-0.03,1.74-0.03h7.96c0.54,0,1.13,0.01,1.77,0.03c0.63,0.02,1.29,0.03,1.96,0.05
	c0.67,0.02,1.26,0.03,1.77,0.03h8.34l4.42,13.57h-9.21c-0.51,0-1.1,0.01-1.77,0.03c-0.67,0.02-1.34,0.04-2.02,0.05
	c-0.67,0.02-1.26,0.03-1.77,0.03H494.51z"/>
<path class="st6" d="M547.76,246.65c4.36-0.11,8.68-0.21,12.95-0.3c4.27-0.09,8.33-0.14,12.18-0.14c5.09,0,9.54,0.7,13.35,2.1
	c3.82,1.4,6.8,3.56,8.94,6.49c2.14,2.93,3.22,6.68,3.22,11.26c0,2.65-0.61,5.14-1.83,7.47c-1.22,2.32-2.83,4.25-4.82,5.78
	c-2,1.53-4.22,2.43-6.65,2.73v-1.74c2.94,0.14,5.7,1.14,8.26,3c2.56,1.85,4.63,4.24,6.19,7.17c1.56,2.93,2.34,6.08,2.34,9.46
	c0,5.09-1.12,9.26-3.35,12.51c-2.24,3.25-5.39,5.66-9.46,7.22c-4.07,1.56-8.89,2.34-14.45,2.34c-4.22,0-8.59-0.05-13.11-0.14
	c-4.52-0.09-9.11-0.19-13.76-0.3l-0.76-0.76v-73.37L547.76,246.65z M564.17,309.77c1.78-0.03,3.47-0.06,5.07-0.08
	c1.6-0.02,2.98-0.03,4.14-0.03c2.98,0,5.26-0.55,6.84-1.66c1.58-1.11,2.67-2.47,3.27-4.09c0.6-1.62,0.9-3.19,0.9-4.72
	c0-1.6-0.32-3.22-0.95-4.88c-0.64-1.65-1.76-3.04-3.38-4.17c-1.62-1.13-3.88-1.69-6.78-1.69h-15.64v-12.37h14.39
	c2.47,0,4.38-0.44,5.72-1.34c1.34-0.89,2.29-2.01,2.84-3.35c0.54-1.34,0.82-2.73,0.82-4.14c0-1.45-0.27-2.84-0.82-4.14
	c-0.54-1.31-1.5-2.39-2.86-3.24c-1.36-0.85-3.26-1.28-5.69-1.28c-0.95,0-2.15-0.01-3.6-0.03c-1.45-0.02-2.87-0.04-4.25-0.08V309.77z
	"/>
<path class="st6" d="M615.13,246.87c1.38-0.29,2.92-0.47,4.61-0.54c1.69-0.07,3.06-0.11,4.12-0.11c1.16,0,2.54,0.04,4.14,0.11
	c1.6,0.07,3.12,0.25,4.58,0.54v74.46c-1.45,0.25-2.98,0.43-4.58,0.52c-1.6,0.09-2.98,0.14-4.14,0.14c-1.05,0-2.43-0.05-4.12-0.14
	c-1.69-0.09-3.23-0.26-4.61-0.52V246.87z"/>
<path class="st6" d="M667.68,321.65h-7.36c-3.13,0-5.6-0.91-7.41-2.73c-1.82-1.82-2.73-4.31-2.73-7.47v-64.6l0.76-0.71h6.38
	c3.34,0,5.9,0.86,7.69,2.59c1.78,1.73,2.67,4.53,2.67,8.42V321.65z M696.79,306.61c0,5.52-0.9,9.41-2.7,11.66
	c-1.8,2.25-4.86,3.38-9.19,3.38h-24.58l-9.38-12.65c4.76-0.83,9.48-1.44,14.15-1.83c4.67-0.38,8.93-0.57,12.78-0.57H696.79z"/>
<g>
	<path class="st7" d="M714.13,246.87c1.38-0.29,2.92-0.47,4.61-0.54c1.69-0.07,3.06-0.11,4.12-0.11c1.16,0,2.54,0.04,4.14,0.11
		c1.6,0.07,3.12,0.25,4.58,0.54v74.46c-1.45,0.25-2.98,0.43-4.58,0.52c-1.6,0.09-2.98,0.14-4.14,0.14c-1.05,0-2.43-0.05-4.12-0.14
		c-1.69-0.09-3.23-0.26-4.61-0.52V246.87z"/>
	<path class="st7" d="M741.99,261.37c-0.25-1.31-0.42-2.59-0.49-3.84c-0.07-1.25-0.11-2.37-0.11-3.35c0-1.02,0.04-2.16,0.11-3.43
		c0.07-1.27,0.24-2.56,0.49-3.87h53.96c0.29,0.91,0.51,1.97,0.65,3.19c0.14,1.22,0.22,2.39,0.22,3.52c0,2.84-0.73,4.84-2.21,6.02
		c-1.47,1.18-3.77,1.77-6.9,1.77h-3.22c-0.8,0-1.93-0.02-3.41-0.05c-1.47-0.03-2.63-0.05-3.46-0.05h-17.5
		c-0.8,0-1.94,0.02-3.43,0.05c-1.49,0.04-2.64,0.05-3.44,0.05H741.99z M760.14,269.32c0-1.49,0.02-2.83,0.05-4.01
		c0.03-1.18,0.05-2.53,0.05-4.06v-7.19h17.28v7.19c0,1.53,0.02,2.88,0.05,4.06c0.03,1.18,0.05,2.52,0.05,4.01v52
		c-1.49,0.25-3.02,0.43-4.58,0.52s-2.94,0.14-4.14,0.14c-1.23,0-2.63-0.05-4.2-0.14c-1.56-0.09-3.09-0.26-4.58-0.52V269.32z"/>
</g>
<g>
	<path class="st0" d="M34.31,225.26c0.02-0.21,0.1-0.41,0.22-0.61c0.12-0.2,0.26-0.36,0.41-0.47c0.52,0.36,1.1,0.65,1.72,0.87
		c0.62,0.22,1.23,0.34,1.82,0.34c0.82,0,1.48-0.17,1.96-0.52c0.49-0.34,0.73-0.82,0.73-1.42c0-0.54-0.18-0.98-0.54-1.35
		c-0.36-0.36-0.81-0.65-1.34-0.88l-2.14-0.9c-0.75-0.32-1.33-0.71-1.75-1.19c-0.42-0.48-0.63-1.07-0.63-1.77
		c0-0.59,0.16-1.13,0.47-1.62c0.31-0.49,0.75-0.89,1.33-1.19c0.57-0.3,1.25-0.45,2.03-0.45c0.68,0,1.32,0.09,1.92,0.26
		c0.6,0.17,1.13,0.37,1.59,0.6c-0.01,0.19-0.06,0.4-0.16,0.6s-0.23,0.38-0.38,0.51c-0.47-0.24-0.96-0.44-1.48-0.59
		c-0.52-0.15-1.01-0.22-1.45-0.22c-0.74,0-1.33,0.18-1.8,0.55c-0.47,0.37-0.7,0.85-0.7,1.44c0,0.48,0.17,0.86,0.51,1.14
		c0.34,0.29,0.74,0.53,1.2,0.72l2.07,0.87c0.46,0.19,0.9,0.44,1.3,0.73c0.4,0.29,0.72,0.64,0.97,1.05c0.24,0.41,0.37,0.88,0.37,1.42
		c0,0.65-0.15,1.24-0.45,1.75c-0.3,0.52-0.76,0.92-1.37,1.21c-0.61,0.29-1.39,0.44-2.33,0.44c-0.74,0-1.47-0.12-2.19-0.36
		S34.86,225.66,34.31,225.26z"/>
	<path class="st0" d="M45.32,214.32c0.12-0.02,0.25-0.03,0.41-0.04c0.15-0.01,0.29-0.01,0.41-0.01c0.13,0,0.28,0,0.44,0.01
		c0.16,0.01,0.29,0.02,0.4,0.04l-0.37,1.62l-0.12,0.01c0.01,0.36,0.03,0.75,0.04,1.19c0.02,0.43,0.03,0.87,0.05,1.32
		c0.01,0.45,0.02,0.88,0.02,1.29v6.62c-0.12,0.02-0.23,0.03-0.34,0.04c-0.11,0.01-0.21,0.01-0.3,0.01s-0.19,0-0.29-0.01
		c-0.1-0.01-0.21-0.02-0.33-0.04V214.32z M47.73,218.37c-0.22-0.42-0.43-0.83-0.63-1.24c-0.2-0.4-0.39-0.8-0.57-1.19l-0.65-0.81
		l1.09-0.81l4.29,8c0.23,0.43,0.44,0.85,0.64,1.28c0.2,0.42,0.39,0.82,0.58,1.2l0.65,0.66l-1.11,0.91L47.73,218.37z M53.68,214.35
		v12.02c-0.11,0.02-0.23,0.03-0.37,0.04c-0.13,0.01-0.28,0.01-0.45,0.01c-0.16,0-0.32,0-0.46-0.01c-0.14-0.01-0.27-0.02-0.38-0.04
		l0.39-1.57h0.12c-0.02-0.43-0.03-0.88-0.05-1.34c-0.02-0.47-0.03-0.93-0.04-1.39c-0.01-0.46-0.01-0.89-0.01-1.3v-5.64
		c0-0.29,0.04-0.51,0.13-0.66c0.08-0.14,0.27-0.22,0.57-0.22h0.45L53.68,214.35z"/>
	<path class="st0" d="M57.4,214.32c0.09-0.02,0.19-0.03,0.31-0.04c0.12-0.01,0.24-0.01,0.35-0.01c0.13,0,0.25,0,0.38,0.01
		c0.12,0.01,0.23,0.02,0.32,0.04v12.05c-0.09,0.02-0.2,0.03-0.32,0.04c-0.12,0.01-0.25,0.01-0.38,0.01c-0.12,0-0.24,0-0.35-0.01
		c-0.12-0.01-0.22-0.02-0.31-0.04V214.32z"/>
	<path class="st0" d="M69.11,218.13c0-0.42-0.08-0.86-0.25-1.3c-0.17-0.44-0.45-0.82-0.85-1.12c-0.4-0.31-0.95-0.46-1.65-0.46
		c-1.02,0-1.82,0.44-2.37,1.31c-0.56,0.88-0.84,2.16-0.84,3.85c0,1.57,0.29,2.8,0.86,3.67c0.57,0.88,1.35,1.32,2.35,1.32
		c0.52,0,1.04-0.11,1.58-0.33c0.54-0.22,1.09-0.58,1.65-1.07c0.16,0.1,0.32,0.23,0.45,0.4c0.14,0.16,0.23,0.33,0.29,0.48
		c-0.31,0.32-0.68,0.61-1.11,0.87c-0.43,0.26-0.9,0.46-1.42,0.61c-0.52,0.15-1.06,0.22-1.64,0.22c-0.8,0-1.48-0.17-2.04-0.51
		c-0.56-0.34-1.02-0.8-1.37-1.39c-0.35-0.58-0.61-1.24-0.77-1.98c-0.16-0.74-0.24-1.51-0.24-2.3c0-1.46,0.21-2.65,0.65-3.58
		c0.43-0.93,1-1.61,1.7-2.06c0.71-0.44,1.47-0.67,2.3-0.67c0.85,0,1.59,0.16,2.2,0.49c0.61,0.33,1.08,0.75,1.41,1.25
		c0.33,0.51,0.49,1.03,0.49,1.57c0,0.19-0.05,0.38-0.15,0.55c-0.1,0.17-0.3,0.26-0.61,0.26c-0.11,0-0.21-0.01-0.29-0.02
		C69.35,218.19,69.24,218.16,69.11,218.13z"/>
	<path class="st0" d="M84.63,218.04c0,0.83-0.16,1.53-0.49,2.09c-0.33,0.56-0.79,0.99-1.37,1.28c-0.58,0.29-1.26,0.43-2.02,0.43
		h-2.69v-1.11c0.22-0.01,0.5-0.01,0.86-0.01c0.35,0,0.7-0.01,1.06-0.01c0.35,0,0.62,0,0.82,0c0.65,0,1.15-0.14,1.5-0.42
		c0.35-0.28,0.59-0.63,0.72-1.04c0.13-0.41,0.2-0.81,0.2-1.21c0-0.41-0.07-0.81-0.2-1.22c-0.13-0.41-0.37-0.74-0.72-1.02
		c-0.35-0.27-0.85-0.41-1.5-0.41c-0.29,0-0.64,0-1.05,0c-0.42,0-0.79-0.01-1.11-0.01v10.99c-0.09,0.02-0.2,0.03-0.32,0.04
		c-0.12,0.01-0.25,0.01-0.38,0.01c-0.11,0-0.23,0-0.35-0.01c-0.12-0.01-0.22-0.02-0.31-0.04v-11.95l0.11-0.11
		c0.61-0.01,1.19-0.02,1.73-0.04c0.54-0.01,1.09-0.02,1.64-0.02c0.75,0,1.42,0.14,2.01,0.42c0.59,0.28,1.05,0.7,1.38,1.26
		C84.47,216.51,84.63,217.2,84.63,218.04z"/>
	<path class="st0" d="M94.74,217.76c0,0.53-0.09,1.01-0.28,1.44c-0.19,0.43-0.46,0.8-0.8,1.1c-0.35,0.3-0.76,0.52-1.24,0.67
		c0.27,0.09,0.51,0.27,0.71,0.53c0.2,0.27,0.36,0.56,0.48,0.89l0.92,2.38c0.15,0.39,0.27,0.67,0.38,0.83
		c0.1,0.17,0.23,0.31,0.37,0.43c-0.09,0.15-0.24,0.26-0.42,0.34s-0.36,0.11-0.51,0.11c-0.27,0-0.47-0.08-0.6-0.23
		c-0.13-0.15-0.25-0.37-0.36-0.66l-1.01-2.68c-0.17-0.46-0.39-0.84-0.66-1.15c-0.27-0.31-0.7-0.46-1.29-0.46h-2.39v-1.11
		c0.28-0.01,0.58-0.02,0.92-0.03c0.34-0.01,0.67-0.01,1.01-0.02c0.34,0,0.65,0,0.93,0c0.65,0,1.15-0.12,1.5-0.36
		c0.35-0.24,0.59-0.54,0.73-0.9c0.14-0.36,0.2-0.73,0.2-1.1c0-0.39-0.07-0.76-0.2-1.12c-0.13-0.36-0.38-0.66-0.73-0.89
		c-0.35-0.23-0.85-0.35-1.5-0.35c-0.29,0-0.66,0-1.12,0c-0.46,0-0.86-0.01-1.18-0.01v10.99c-0.09,0.02-0.2,0.03-0.32,0.04
		c-0.12,0.01-0.25,0.01-0.38,0.01c-0.11,0-0.23,0-0.35-0.01c-0.12-0.01-0.22-0.02-0.31-0.04v-11.95l0.11-0.11
		c0.61-0.01,1.22-0.02,1.82-0.04s1.18-0.02,1.75-0.02c0.82,0,1.51,0.14,2.08,0.42c0.57,0.28,1.01,0.68,1.31,1.2
		C94.59,216.41,94.74,217.03,94.74,217.76z"/>
	<path class="st0" d="M97.84,214.42l0.11-0.11h1.2v1.11c0,0.25,0,0.44,0.01,0.57c0.01,0.14,0.01,0.32,0.01,0.56v7.99
		c0,0.12,0,0.23-0.01,0.33c-0.01,0.1-0.01,0.22-0.01,0.35v1.13h-0.53c-0.24,0-0.42-0.08-0.56-0.24c-0.14-0.16-0.21-0.38-0.21-0.65
		V214.42z M104.78,214.32c0.02,0.1,0.03,0.2,0.03,0.29c0,0.09,0,0.18,0,0.26c0,0.08-0.01,0.17-0.02,0.29
		c-0.01,0.11-0.04,0.22-0.08,0.33h-4.5c-0.13,0-0.28,0-0.45,0s-0.35,0-0.53,0c-0.19,0-0.36-0.01-0.53-0.01v-1.15H104.78z
		 M103.87,219.69c0.02,0.09,0.03,0.19,0.04,0.3c0.01,0.11,0.01,0.2,0.01,0.27c0,0.08-0.01,0.17-0.01,0.27
		c-0.01,0.11-0.02,0.21-0.04,0.31h-3.65c-0.13,0-0.28,0-0.45,0c-0.17,0-0.35-0.01-0.53-0.01c-0.19,0-0.36,0-0.53,0v-1.12
		c0.17,0,0.35,0,0.53,0c0.18,0,0.36-0.01,0.53-0.01c0.17,0,0.32,0,0.45,0H103.87z M105.07,225.19c0,0.46-0.07,0.77-0.21,0.93
		c-0.14,0.16-0.37,0.24-0.7,0.24H98.7v-1.1c0.23-0.02,0.46-0.03,0.7-0.05c0.24-0.01,0.52-0.02,0.84-0.02H105.07z"/>
	<path class="st0" d="M106.87,225.26c0.02-0.21,0.1-0.41,0.22-0.61c0.12-0.2,0.26-0.36,0.41-0.47c0.52,0.36,1.1,0.65,1.72,0.87
		c0.62,0.22,1.23,0.34,1.82,0.34c0.82,0,1.48-0.17,1.96-0.52c0.49-0.34,0.73-0.82,0.73-1.42c0-0.54-0.18-0.98-0.54-1.35
		c-0.36-0.36-0.81-0.65-1.34-0.88l-2.14-0.9c-0.75-0.32-1.33-0.71-1.75-1.19c-0.42-0.48-0.63-1.07-0.63-1.77
		c0-0.59,0.16-1.13,0.47-1.62c0.31-0.49,0.75-0.89,1.33-1.19c0.57-0.3,1.25-0.45,2.03-0.45c0.68,0,1.32,0.09,1.92,0.26
		c0.6,0.17,1.13,0.37,1.59,0.6c-0.01,0.19-0.06,0.4-0.16,0.6s-0.23,0.38-0.38,0.51c-0.47-0.24-0.96-0.44-1.48-0.59
		s-1.01-0.22-1.45-0.22c-0.74,0-1.33,0.18-1.8,0.55c-0.47,0.37-0.7,0.85-0.7,1.44c0,0.48,0.17,0.86,0.51,1.14
		c0.34,0.29,0.74,0.53,1.2,0.72l2.07,0.87c0.46,0.19,0.9,0.44,1.3,0.73c0.4,0.29,0.72,0.64,0.97,1.05c0.24,0.41,0.37,0.88,0.37,1.42
		c0,0.65-0.15,1.24-0.45,1.75c-0.3,0.52-0.76,0.92-1.37,1.21c-0.61,0.29-1.39,0.44-2.33,0.44c-0.74,0-1.47-0.12-2.19-0.36
		S107.43,225.66,106.87,225.26z"/>
	<path class="st0" d="M117.88,214.42l0.11-0.11h1.2v1.11c0,0.25,0,0.44,0.01,0.57c0.01,0.14,0.01,0.32,0.01,0.56v7.99
		c0,0.12,0,0.23-0.01,0.33c-0.01,0.1-0.01,0.22-0.01,0.35v1.13h-0.53c-0.24,0-0.42-0.08-0.56-0.24c-0.14-0.16-0.21-0.38-0.21-0.65
		V214.42z M124.81,214.32c0.02,0.1,0.03,0.2,0.03,0.29c0,0.09,0,0.18,0,0.26c0,0.08-0.01,0.17-0.02,0.29
		c-0.01,0.11-0.04,0.22-0.08,0.33h-4.5c-0.13,0-0.28,0-0.45,0s-0.35,0-0.53,0c-0.19,0-0.36-0.01-0.53-0.01v-1.15H124.81z
		 M123.9,219.69c0.02,0.09,0.03,0.19,0.04,0.3c0.01,0.11,0.01,0.2,0.01,0.27c0,0.08-0.01,0.17-0.01,0.27
		c-0.01,0.11-0.02,0.21-0.04,0.31h-3.65c-0.13,0-0.28,0-0.45,0c-0.17,0-0.35-0.01-0.53-0.01c-0.19,0-0.36,0-0.53,0v-1.12
		c0.17,0,0.35,0,0.53,0c0.18,0,0.36-0.01,0.53-0.01c0.17,0,0.32,0,0.45,0H123.9z M125.1,225.19c0,0.46-0.07,0.77-0.21,0.93
		c-0.14,0.16-0.37,0.24-0.7,0.24h-5.46v-1.1c0.23-0.02,0.46-0.03,0.7-0.05c0.24-0.01,0.52-0.02,0.84-0.02H125.1z"/>
	<path class="st0" d="M127.96,214.32c0.12-0.02,0.25-0.03,0.41-0.04c0.15-0.01,0.29-0.01,0.41-0.01c0.13,0,0.28,0,0.44,0.01
		c0.16,0.01,0.29,0.02,0.4,0.04l-0.37,1.62l-0.12,0.01c0.01,0.36,0.03,0.75,0.04,1.19c0.02,0.43,0.03,0.87,0.05,1.32
		c0.01,0.45,0.02,0.88,0.02,1.29v6.62c-0.12,0.02-0.23,0.03-0.34,0.04c-0.11,0.01-0.21,0.01-0.3,0.01s-0.19,0-0.29-0.01
		c-0.1-0.01-0.21-0.02-0.33-0.04V214.32z M130.37,218.37c-0.22-0.42-0.43-0.83-0.63-1.24c-0.2-0.4-0.39-0.8-0.57-1.19l-0.65-0.81
		l1.09-0.81l4.29,8c0.23,0.43,0.44,0.85,0.64,1.28c0.2,0.42,0.39,0.82,0.58,1.2l0.65,0.66l-1.11,0.91L130.37,218.37z M136.33,214.35
		v12.02c-0.11,0.02-0.23,0.03-0.37,0.04c-0.13,0.01-0.28,0.01-0.45,0.01c-0.16,0-0.32,0-0.46-0.01c-0.14-0.01-0.27-0.02-0.38-0.04
		l0.39-1.57h0.12c-0.02-0.43-0.03-0.88-0.05-1.34c-0.02-0.47-0.03-0.93-0.04-1.39c-0.01-0.46-0.01-0.89-0.01-1.3v-5.64
		c0-0.29,0.04-0.51,0.13-0.66c0.08-0.14,0.27-0.22,0.57-0.22h0.45L136.33,214.35z"/>
	<path class="st0" d="M138.62,215.48c-0.02-0.1-0.04-0.2-0.05-0.29c-0.01-0.1-0.01-0.19-0.01-0.29c0-0.09,0.01-0.19,0.01-0.29
		c0.01-0.1,0.02-0.2,0.05-0.3h7.76c0.03,0.08,0.05,0.17,0.07,0.27c0.02,0.1,0.02,0.19,0.02,0.29c0,0.22-0.07,0.37-0.2,0.47
		c-0.13,0.09-0.34,0.14-0.61,0.14h-1.52c-0.11,0-0.26,0-0.47-0.01c-0.21-0.01-0.37-0.01-0.49-0.01h-1.35c-0.11,0-0.27,0-0.48,0.01
		c-0.2,0.01-0.37,0.01-0.48,0.01H138.62z M141.83,216.77c0-0.24,0-0.46,0-0.65c0-0.19,0-0.41,0-0.66v-0.56h1.35v0.56
		c0,0.25,0,0.47,0,0.66c0,0.19,0,0.41,0,0.65v9.6c-0.09,0.02-0.2,0.03-0.32,0.04c-0.12,0.01-0.24,0.01-0.35,0.01
		c-0.11,0-0.23,0-0.35-0.01c-0.12-0.01-0.23-0.02-0.33-0.04V216.77z"/>
	<path class="st0" d="M147.59,225.26c0.02-0.21,0.1-0.41,0.22-0.61c0.12-0.2,0.26-0.36,0.41-0.47c0.52,0.36,1.1,0.65,1.72,0.87
		c0.62,0.22,1.23,0.34,1.82,0.34c0.82,0,1.48-0.17,1.96-0.52c0.49-0.34,0.73-0.82,0.73-1.42c0-0.54-0.18-0.98-0.54-1.35
		c-0.36-0.36-0.81-0.65-1.34-0.88l-2.14-0.9c-0.75-0.32-1.33-0.71-1.75-1.19c-0.42-0.48-0.63-1.07-0.63-1.77
		c0-0.59,0.16-1.13,0.47-1.62c0.31-0.49,0.75-0.89,1.33-1.19c0.57-0.3,1.25-0.45,2.03-0.45c0.68,0,1.32,0.09,1.92,0.26
		c0.6,0.17,1.13,0.37,1.59,0.6c-0.01,0.19-0.06,0.4-0.16,0.6s-0.23,0.38-0.38,0.51c-0.47-0.24-0.96-0.44-1.48-0.59
		s-1.01-0.22-1.45-0.22c-0.74,0-1.33,0.18-1.8,0.55s-0.7,0.85-0.7,1.44c0,0.48,0.17,0.86,0.51,1.14c0.34,0.29,0.74,0.53,1.2,0.72
		l2.07,0.87c0.46,0.19,0.9,0.44,1.3,0.73c0.4,0.29,0.72,0.64,0.97,1.05c0.24,0.41,0.37,0.88,0.37,1.42c0,0.65-0.15,1.24-0.45,1.75
		c-0.3,0.52-0.76,0.92-1.37,1.21c-0.61,0.29-1.39,0.44-2.33,0.44c-0.74,0-1.47-0.12-2.19-0.36
		C148.78,225.98,148.15,225.66,147.59,225.26z"/>
	<path class="st0" d="M158.05,219.54c0-0.11,0.01-0.24,0.04-0.41c0.03-0.17,0.06-0.29,0.1-0.37c0.08-0.05,0.21-0.09,0.39-0.13
		s0.35-0.06,0.52-0.06c0.15,0,0.32,0.02,0.51,0.06c0.19,0.04,0.33,0.08,0.4,0.13c0.05,0.08,0.08,0.2,0.11,0.37
		c0.02,0.17,0.04,0.3,0.04,0.41c0,0.11-0.01,0.24-0.04,0.41c-0.03,0.16-0.06,0.29-0.11,0.36c-0.07,0.05-0.2,0.09-0.39,0.13
		c-0.2,0.04-0.37,0.06-0.52,0.06c-0.16,0-0.34-0.02-0.52-0.06s-0.31-0.08-0.39-0.13c-0.04-0.08-0.07-0.2-0.1-0.36
		C158.06,219.78,158.05,219.64,158.05,219.54z M158.05,225.54c0-0.11,0.01-0.24,0.04-0.41c0.03-0.17,0.06-0.29,0.1-0.37
		c0.08-0.05,0.21-0.09,0.39-0.13c0.18-0.04,0.35-0.06,0.52-0.06c0.15,0,0.32,0.02,0.51,0.06c0.19,0.04,0.33,0.08,0.4,0.13
		c0.05,0.08,0.08,0.2,0.11,0.37c0.02,0.17,0.04,0.3,0.04,0.41c0,0.11-0.01,0.24-0.04,0.41c-0.03,0.16-0.06,0.29-0.11,0.36
		c-0.07,0.05-0.2,0.09-0.39,0.13c-0.2,0.04-0.37,0.06-0.52,0.06c-0.16,0-0.34-0.02-0.52-0.06s-0.31-0.08-0.39-0.13
		c-0.04-0.08-0.07-0.2-0.1-0.36C158.06,225.78,158.05,225.64,158.05,225.54z"/>
</g>
<path class="st0" d="M702.79,335.81c-6.25,9.38-2.55,3.81-8.3,12.45H35.22c-0.71,0-1.29,0.58-1.29,1.29v9.92
	c0,0.71,0.58,1.29,1.29,1.29l664-0.01c0,0,0,0,0,0c1.09,0.03,2.18-0.19,3.18-0.66c1.17-0.54,2.21-1.41,2.99-2.58
	c6.61-9.84,2.68-4,9.26-13.86C715.09,342.99,703.24,335.14,702.79,335.81z"/>
<path class="st0" d="M442.73,357.28c12.21,8.91,13.12,10.24,24.26,17.89c0,0,89.02-0.27,89.12,0.4c0,0-4.88,11.98-6.12,12.17
	c0,0-79.7-0.03-79.7-0.03c-2.45,0.02-4.28,0.06-6.98,0c-2.12-0.04-3.46-0.36-4.92-1.37c-12.13-8.35-11.62-8.65-25.92-19.84
	C431.66,365.88,441.91,356.68,442.73,357.28z"/>
<path class="st0" d="M430.7,352.84c3.72,2.71,18.38,9.6,24.62,13.91c8.78,6.07-8.6,10.32-9.61,9.62
	c-12.13-8.35-11.62-8.65-25.92-19.84C418.99,355.9,429.88,352.24,430.7,352.84z"/>
<circle class="st0" cx="547.63" cy="380.98" r="11.57"/>
</svg>
